<?xml version="1.0" encoding="utf-8"?>
<!-- Generator: Adobe Illustrator 19.0.0, SVG Export Plug-In . SVG Version: 6.00 Build 0)  -->
<svg version="1.1" id="Layer_1" xmlns="http://www.w3.org/2000/svg" xmlns:xlink="http://www.w3.org/1999/xlink" x="0px" y="0px"
	 viewBox="0 0 500 500" style="enable-background:new 0 0 500 500;" xml:space="preserve">
<style type="text/css">
	.st0{fill:#F47D30;}
	.st1{fill:#ffffff;}
</style>
<g id="XMLID_1_">
	<path id="XMLID_20_" class="st0" d="M422.8,237.5c-2.1,0-4.2-0.7-5.3-1.4c-24.3-12.6-51.8-20.1-78.5-20.1c-3.4,0-5.8,0.1-9,0.4
		c5,8,13.7,19.7,19.7,26.8c1.6,1.9,2,3,2,4.8c0,3.1-3.3,6.1-6.8,6.1c-2.3,0-3.7-0.9-5.9-3.5c-7.2-8.5-18.1-23.6-23.3-32.1
		c-25.4,4.5-53.7,19.5-70.4,32.7c-1.9,1.5-3.2,2.2-5.2,2.2c-3.6,0-6.6-3.1-6.6-6.6c0-2,0.7-3.5,3.4-5.7c25.5-21.2,65.1-38,98.8-38
		c13.3,0,26.2,1.8,38.7,4.9c7.6,1.8,18.8,5.6,28.3,9.8c-25-15.1-56.4-28.9-76.2-28.9c-5.1,0-8.2,1.7-8.2,5.1c0,2,1.1,4.7,2.8,7.4
		c-4,0.4-9.2,1.2-13.2,2.3c-2.1-3.8-3.5-7.8-3.5-12.2c0-9.7,6.3-15.6,19-15.6c28.7,0,77.1,26.8,101.2,46.4c2.8,2.2,5.5,5,5.5,8.3
		C430,233.8,427.2,237.5,422.8,237.5"/>
	<path id="XMLID_19_" class="st1" d="M110.4,294.5c0-1.7,1-2.8,2.6-2.8s2.6,1.1,2.6,2.8v2.9c1.4-2.9,4.5-5.7,7.3-5.7
		c1.8,0,2.7,1.1,2.7,2.5c0,1.4-0.7,2.4-3.1,3c-4.8,1.3-6.9,4-6.9,9.2v14.9c0,1.7-1,2.8-2.6,2.8c-1.6,0-2.6-1.1-2.6-2.8V294.5z"/>
	<path id="XMLID_18_" class="st1" d="M228.3,294.5c0-1.7,1-2.8,2.6-2.8c1.6,0,2.6,1.1,2.6,2.8v2.9c1.4-2.9,4.5-5.7,7.3-5.7
		c1.8,0,2.7,1.1,2.7,2.5c0,1.4-0.8,2.4-3.1,3c-4.8,1.3-6.9,4-6.9,9.2v14.9c0,1.7-1,2.8-2.6,2.8c-1.6,0-2.6-1.1-2.6-2.8L228.3,294.5
		L228.3,294.5z"/>
	<path id="XMLID_17_" class="st1" d="M140.6,291.7c5.1,0,8.4,2.1,8.4,3.9c0,1.1-0.8,2.2-2.1,2.2c-1.9,0-2.8-1.6-6.4-1.6
		c-6,0-9,5.3-9,11.6c0,6.8,3.4,11.6,9,11.6c3.9,0,4.7-1.6,6.6-1.6c1.2,0,1.9,0.8,1.9,2c0,1.2-1,2.2-2.8,3c-1.5,0.7-3.6,1.2-5.7,1.2
		c-8.9,0-14.3-6.7-14.3-16.2C126.3,298.7,131.7,291.7,140.6,291.7"/>
	<path class="st1" d="M156.7,309.9c0.1,5.2,3.5,9.6,9.3,9.6c6.2,0,7.6-3.5,9.9-3.5c1.3,0,2.1,0.8,2.1,2.2c0,2.6-5.6,5.9-12,5.9
		c-4.7,0-7.9-1.5-10.3-3.9c-3-3-4.4-7.5-4.4-12.3c0-8.6,5.3-16.2,14.2-16.2c8.2,0,13.6,7.3,13.6,15.4c0,1.8-0.7,2.8-2.9,2.8
		L156.7,309.9L156.7,309.9z M173.9,306c0-4.5-2.6-9.7-8.3-9.7c-5.7,0-8.7,4.4-8.9,9.7H173.9z"/>
	<path id="XMLID_14_" class="st1" d="M190,321.3c0,1.7-1,2.8-2.6,2.8c-1.6,0-2.6-1.1-2.6-2.8v-37.4c0-1.7,1-2.8,2.6-2.8
		c1.6,0,2.6,1.1,2.6,2.8V321.3z"/>
	<path class="st1" d="M209.1,324.1c-8.4,0-13.9-6.7-13.9-16.2c0-9.5,5.6-16.2,13.9-16.2c8.4,0,13.9,6.7,13.9,16.2
		C223,317.4,217.5,324.1,209.1,324.1 M209.1,319.5c5.1,0,8.6-4.5,8.6-11.6c0-7.1-3.5-11.6-8.6-11.6c-5.1,0-8.6,4.5-8.6,11.6
		C200.5,315,204,319.5,209.1,319.5"/>
	<path id="XMLID_11_" class="st1" d="M280,293.9c-2.9,10.1-7.7,26.6-8.1,28c-0.4,1.5-1.4,2.1-2.8,2.1c-1.4,0-2.3-0.5-2.8-2.1
		c-0.4-1.4-5.5-18.8-8.4-28.7c-0.5-1.6-0.9-3.6-1.3-5.2c-0.2,1.6-0.5,3.5-0.7,5.3c-1.5,9.4-3.8,24.1-4.5,28.3
		c-0.3,1.8-1.2,2.6-2.7,2.6c-1.4,0-2.3-1-2.3-2.5c0-0.6,0.1-1.4,0.3-2.4c0,0,5.3-31.7,5.7-34.2c0.4-2.6,1.8-4,4-4
		c2,0,3.5,1.1,4.1,3.3c0.4,1.3,4.6,16.3,7.3,25.7c0.5,1.7,1,3.8,1.4,5.6c0.4-1.8,0.8-3.8,1.3-5.5c2.7-9.4,7-24.5,7.4-25.8
		c0.6-2.2,2-3.3,3.9-3.3c2.1,0,3.6,1.3,4,4c0.4,2.4,5.7,34.2,5.7,34.2c0.2,1,0.3,1.8,0.3,2.4c0,1.5-0.9,2.5-2.3,2.5
		c-1.5,0-2.5-0.8-2.7-2.6c-0.6-4-2.8-18-4.3-27.4c-0.3-1.9-0.6-4.1-0.8-6.1C281.1,289.6,280.6,291.8,280,293.9"/>
	<path class="st1" d="M301,282.5c1.8,0,3.2,1.4,3.2,3.2s-1.4,3.2-3.2,3.2c-1.8,0-3.2-1.4-3.2-3.2C297.8,283.9,299.2,282.5,301,282.5
		 M303.7,294.5c0-1.7-1-2.8-2.6-2.8c-1.6,0-2.6,1.1-2.6,2.8v26.7c0,1.7,1,2.8,2.6,2.8c1.6,0,2.6-1.1,2.6-2.8V294.5z"/>
	<path id="XMLID_8_" class="st1" d="M312.8,285.3c0-1.7,1-2.8,2.6-2.8c1.6,0,2.6,1.1,2.6,2.8v6.8h2.1c1.7,0,2.6,0.8,2.6,2.3
		s-0.9,2.3-2.6,2.3h-2.1v24.6c0,1.7-1,2.8-2.6,2.8c-1.6,0-2.6-1.1-2.6-2.8v-24.6h-1.9c-1.7,0-2.6-0.9-2.6-2.3c0-1.4,0.9-2.3,2.6-2.3
		h1.9V285.3z"/>
	<path id="XMLID_7_" class="st1" d="M329.4,285.3c0-1.7,1-2.8,2.6-2.8c1.6,0,2.6,1.1,2.6,2.8v6.8h2.1c1.7,0,2.6,0.8,2.6,2.3
		s-0.9,2.3-2.6,2.3h-2.1v24.6c0,1.7-1,2.8-2.6,2.8c-1.6,0-2.6-1.1-2.6-2.8v-24.6h-1.9c-1.7,0-2.6-0.9-2.6-2.3c0-1.4,0.9-2.3,2.6-2.3
		h1.9V285.3z"/>
	<path class="st1" d="M104.7,319.3c-1.1-3-11.4-30.6-13-34.8c-0.8-2.1-2-3.4-4.1-3.4c-2.1,0-3.2,1.2-4,3.4
		c-0.7,1.9-11.9,31.9-13,34.8c-0.5,1.3-0.7,2-0.7,2.5c0,1.3,1.1,2.3,2.5,2.3c1.4,0,2.2-0.7,2.7-2c0.3-0.7,1.7-4.8,3.6-10h17.9
		c1.8,4.9,3.2,8.9,3.6,10c0.4,1.1,1.1,2,2.6,2c1.4,0,2.7-0.8,2.7-2.2C105.4,321.3,105.3,320.8,104.7,319.3 M80.4,307.4
		c2.2-6.1,4.6-12.8,6.2-17.3c0.4-1.2,0.8-2.4,1.1-3.4c0.3,1.1,0.7,2.3,1.1,3.4c1.6,4.5,4,11.1,6.2,17.3H80.4z"/>
	<path id="XMLID_4_" class="st1" d="M382.4,321.3c0,1.7-1,2.8-2.6,2.8c-1.6,0-2.6-1.1-2.6-2.8v-37.4c0-1.7,1-2.8,2.6-2.8
		c1.6,0,2.6,1.1,2.6,2.8V321.3z"/>
	<path class="st1" d="M367,291.7c-1.6,0-2.6,1.1-2.6,2.8v2.4c-1.9-3.2-5.1-5.2-9-5.2c-8,0-13.5,6.7-13.5,16.2
		c0,9.5,5.5,16.2,13.5,16.2c3.9,0,7.1-2,9-5.2v2.4c0,1.7,1,2.8,2.6,2.8c1.6,0,2.6-1.1,2.6-2.8v-26.7
		C369.7,292.8,368.6,291.7,367,291.7 M355.8,319.5c-5.1,0-8.6-4.5-8.6-11.6c0-7.1,3.5-11.6,8.6-11.6c5.1,0,8.6,4.5,8.6,11.6
		C364.5,315,360.9,319.5,355.8,319.5"/>
</g>
</svg>
